# Project-owned low-poly cat silhouette for Confidence Core.
# Units are centimeters; placed actors use scale 0.3.
o AcademyCat
s off

# Body
v -75 -35 0
v 75 -35 0
v 75 -35 190
v -75 -35 190
v -75 35 0
v 75 35 0
v 75 35 190
v -75 35 190
f 1 2 3 4
f 8 7 6 5
f 5 1 4 8
f 2 6 7 3
f 5 6 2 1
f 4 3 7 8

# Head
v -85 -40 155
v 85 -40 155
v 85 -40 280
v -85 -40 280
v -85 40 155
v 85 40 155
v 85 40 280
v -85 40 280
f 9 10 11 12
f 16 15 14 13
f 13 9 12 16
f 10 14 15 11
f 13 14 10 9
f 12 11 15 16

# Left pointed ear
v -80 -35 265
v -25 -35 265
v -65 -35 355
v -80 35 265
v -25 35 265
v -65 35 355
f 17 18 19
f 22 21 20
f 17 20 21 18
f 18 21 22 19
f 17 19 22 20

# Right pointed ear
v 25 -35 265
v 80 -35 265
v 65 -35 355
v 25 35 265
v 80 35 265
v 65 35 355
f 23 24 25
f 28 27 26
f 23 26 27 24
f 24 27 28 25
f 23 25 28 26

# Left whisker bar
v -130 -48 207
v -50 -48 207
v -50 -48 217
v -130 -48 217
v -130 -40 207
v -50 -40 207
v -50 -40 217
v -130 -40 217
f 29 30 31 32
f 36 35 34 33
f 33 29 32 36
f 30 34 35 31
f 33 34 30 29
f 32 31 35 36

# Right whisker bar
v 50 -48 207
v 130 -48 207
v 130 -48 217
v 50 -48 217
v 50 -40 207
v 130 -40 207
v 130 -40 217
v 50 -40 217
f 37 38 39 40
f 44 43 42 41
f 41 37 40 44
f 38 42 43 39
f 41 42 38 37
f 40 39 43 44

# Upright tail
v 80 -25 20
v 112 -25 20
v 112 -25 175
v 80 -25 175
v 80 25 20
v 112 25 20
v 112 25 175
v 80 25 175
f 45 46 47 48
f 52 51 50 49
f 49 45 48 52
f 46 50 51 47
f 49 50 46 45
f 48 47 51 52

# Curled tail tip
v 75 -25 155
v 150 -25 155
v 150 -25 190
v 75 -25 190
v 75 25 155
v 150 25 155
v 150 25 190
v 75 25 190
f 53 54 55 56
f 60 59 58 57
f 57 53 56 60
f 54 58 59 55
f 57 58 54 53
f 56 55 59 60
