<svg xmlns="http://www.w3.org/2000/svg" viewBox="0 0 900 910" role="img" aria-label="Full revised popcorn course with protected shell and access"><rect width="900" height="910" fill="#132933"/><text x="30" y="35" fill="white" font-size="23">Pix’s Popcorn Parkour — production revision</text><text x="30" y="63" fill="#d0e5e8" font-size="16">Five jumps · either joke route · teach once / reuse many</text><rect x="30" y="90" width="680" height="740" fill="#234956" stroke="#8dcad4"/><rect x="160.0" y="168.0" width="460" height="104.0" fill="#895157" stroke="#afc2c4"/><text x="390.0" y="220.0" text-anchor="middle" fill="white" font-size="13">Protected planter — untouched</text><rect x="360.0" y="230" width="60" height="60" fill="#895157" stroke="#afc2c4"/><text x="390.0" y="260" text-anchor="middle" fill="white" font-size="13">Post</text><rect x="674.0" y="344.0" width="32.0" height="32.0" fill="#895157" stroke="#afc2c4"/><text x="690.0" y="360.0" text-anchor="middle" fill="white" font-size="13"></text><rect x="674.0" y="604.0" width="32.0" height="32.0" fill="#895157" stroke="#afc2c4"/><text x="690.0" y="620.0" text-anchor="middle" fill="white" font-size="13"></text><rect x="296.0" y="704.0" width="158.0" height="72.0" fill="#895157" stroke="#afc2c4"/><text x="375.0" y="740.0" text-anchor="middle" fill="white" font-size="13">Protected coral</text><rect x="80.0" y="474.0" width="60" height="220" fill="#6f98a7" stroke="#afc2c4"/><text x="110.0" y="584.0" text-anchor="middle" fill="white" font-size="13">Ramp</text><path d="M710 664 H110 V694" stroke="#63e2c7" stroke-width="8" fill="none"/><text x="395" y="687" fill="#c5fff2" text-anchor="middle" font-size="14">Existing east walk access → ramp foot</text><path d="M110 434.0 L230 434.0" stroke="#ffcc6a" stroke-width="4" stroke-dasharray="5 5"/><path d="M230 434.0 L330 434.0" stroke="#ffcc6a" stroke-width="4" stroke-dasharray="5 5"/><path d="M330 434.0 L430 474.0" stroke="#ffcc6a" stroke-width="4" stroke-dasharray="5 5"/><path d="M430 474.0 L530 394.0" stroke="#ffcc6a" stroke-width="4" stroke-dasharray="5 5"/><path d="M430 474.0 L530 554.0" stroke="#ffcc6a" stroke-width="4" stroke-dasharray="5 5"/><path d="M530 394.0 L630 474.0" stroke="#ffcc6a" stroke-width="4" stroke-dasharray="5 5"/><path d="M530 554.0 L630 474.0" stroke="#ffcc6a" stroke-width="4" stroke-dasharray="5 5"/><rect x="50.0" y="394.0" width="120" height="80" rx="12" fill="#fff2cd" stroke="#e6ac51" stroke-width="3"/><text x="110.0" y="434.0" text-anchor="middle" fill="#142f39" font-size="14">Starter</text><rect x="190.0" y="394.0" width="80" height="80" rx="12" fill="#fff2cd" stroke="#e6ac51" stroke-width="3"/><text x="230.0" y="434.0" text-anchor="middle" fill="#142f39" font-size="14">First</text><rect x="290.0" y="394.0" width="80" height="80" rx="12" fill="#fff2cd" stroke="#e6ac51" stroke-width="3"/><text x="330.0" y="434.0" text-anchor="middle" fill="#142f39" font-size="14">Reuse</text><rect x="390.0" y="394.0" width="80" height="160" rx="12" fill="#fff2cd" stroke="#e6ac51" stroke-width="3"/><text x="430.0" y="474.0" text-anchor="middle" fill="#142f39" font-size="14">Fork</text><rect x="490.0" y="354.0" width="80" height="80" rx="12" fill="#fff2cd" stroke="#e6ac51" stroke-width="3"/><text x="530.0" y="394.0" text-anchor="middle" fill="#142f39" font-size="14">Left</text><rect x="490.0" y="514.0" width="80" height="80" rx="12" fill="#fff2cd" stroke="#e6ac51" stroke-width="3"/><text x="530.0" y="554.0" text-anchor="middle" fill="#142f39" font-size="14">Right</text><rect x="590.0" y="394.0" width="80" height="160" rx="12" fill="#fff2cd" stroke="#e6ac51" stroke-width="3"/><text x="630.0" y="474.0" text-anchor="middle" fill="#142f39" font-size="14">Finish</text><circle cx="166.0" cy="410" r="10" fill="#36ddf5"/><text x="166.0" y="414" fill="#16323b" font-size="12" text-anchor="middle">0</text><circle cx="166.0" cy="434.0" r="10" fill="#36ddf5"/><text x="166.0" y="438.0" fill="#16323b" font-size="12" text-anchor="middle">1</text><circle cx="166.0" cy="458.0" r="10" fill="#36ddf5"/><text x="166.0" y="462.0" fill="#16323b" font-size="12" text-anchor="middle">2</text><circle cx="266.0" cy="434.0" r="10" fill="#36ddf5"/><text x="266.0" y="438.0" fill="#16323b" font-size="12" text-anchor="middle">3</text><circle cx="366.0" cy="474.0" r="10" fill="#36ddf5"/><text x="366.0" y="478.0" fill="#16323b" font-size="12" text-anchor="middle">4</text><circle cx="466.0" cy="394.0" r="10" fill="#36ddf5"/><text x="466.0" y="398.0" fill="#16323b" font-size="12" text-anchor="middle">5</text><circle cx="466.0" cy="554.0" r="10" fill="#36ddf5"/><text x="466.0" y="558.0" fill="#16323b" font-size="12" text-anchor="middle">6</text><circle cx="630" cy="530" r="10" fill="#36ddf5"/><text x="630" y="534" fill="#16323b" font-size="12" text-anchor="middle">7</text><text x="740" y="170" fill="white" font-size="15">Shoot cyan</text><text x="740" y="200" fill="white" font-size="15">Jump dashed</text><text x="740" y="230" fill="white" font-size="15">All gaps 1m</text><text x="740" y="260" fill="white" font-size="15">Top 1.2m</text><text x="740" y="320" fill="#ffbfbd" font-size="14">Red: protected</text><text x="740" y="350" fill="#b7fff1" font-size="14">Green: access</text><text x="740" y="410" fill="white" font-size="14">Moustache /</text><text x="740" y="435" fill="white" font-size="14">Bucket: equal</text><text x="30" y="862" fill="white" font-size="16">Full bay catch floor; missed jump returns to last earned landing.</text><text x="30" y="888" fill="#d0e5e8" font-size="14">Concrete changed layout: human review pending. Native sampled clearance; final cooked QA after placement.</text></svg>