v 15.0 -8.0 0
v 13.705952052691874 -5.895241121992006 0
v 10.020815280171309 -4.110912703473988 0
v 4.505618350206527 -2.918662571187923 0
v -1.999999999999999 -2.5 0
v -8.505618350206525 -2.918662571187923 0
v -14.020815280171307 -4.110912703473988 0
v -17.705952052691874 -5.895241121992006 0
v -19.0 -7.999999999999999 0
v -17.705952052691877 -10.104758878007994 0
v -14.02081528017131 -11.88908729652601 0
v -8.505618350206536 -13.081337428812077 0
v -2.000000000000003 -13.5 0
v 4.50561835020653 -13.081337428812077 0
v 10.020815280171306 -11.889087296526013 0
v 13.70595205269187 -10.104758878007997 0
v 19.0 8.0 0
v 17.705952052691874 10.104758878007994 0
v 14.020815280171309 11.88908729652601 0
v 8.505618350206527 13.081337428812077 0
v 2.000000000000001 13.5 0
v -4.505618350206525 13.081337428812077 0
v -10.020815280171307 11.88908729652601 0
v -13.705952052691874 10.104758878007994 0
v -15.0 8.0 0
v -13.705952052691876 5.895241121992006 0
v -10.02081528017131 4.110912703473989 0
v -4.505618350206536 2.918662571187924 0
v 1.999999999999997 2.5 0
v 8.505618350206529 2.918662571187924 0
v 14.020815280171306 4.110912703473987 0
v 17.70595205269187 5.895241121992003 0
f 1 2 3
f 3 2 1
f 1 3 4
f 4 3 1
f 1 4 5
f 5 4 1
f 1 5 6
f 6 5 1
f 1 6 7
f 7 6 1
f 1 7 8
f 8 7 1
f 1 8 9
f 9 8 1
f 1 9 10
f 10 9 1
f 1 10 11
f 11 10 1
f 1 11 12
f 12 11 1
f 1 12 13
f 13 12 1
f 1 13 14
f 14 13 1
f 1 14 15
f 15 14 1
f 1 15 16
f 16 15 1
f 17 18 19
f 19 18 17
f 17 19 20
f 20 19 17
f 17 20 21
f 21 20 17
f 17 21 22
f 22 21 17
f 17 22 23
f 23 22 17
f 17 23 24
f 24 23 17
f 17 24 25
f 25 24 17
f 17 25 26
f 26 25 17
f 17 26 27
f 27 26 17
f 17 27 28
f 28 27 17
f 17 28 29
f 29 28 17
f 17 29 30
f 30 29 17
f 17 30 31
f 31 30 17
f 17 31 32
f 32 31 17
