<svg xmlns="http://www.w3.org/2000/svg" width="1200" height="950" viewBox="0 0 1200 950"><rect width="1200" height="950" fill="#edf1ee"/><style>text{font-family:Arial;fill:#172b3e;font-size:17px}.small{font-size:14px}.title{font-size:28px;font-weight:bold}</style><defs><marker id="arrow" markerWidth="9" markerHeight="9" refX="8" refY="4" orient="auto"><path d="M0,0 L8,4 L0,8" fill="none" stroke="#007e88" stroke-width="2"/></marker></defs><text x="45" y="45" class="title">Repair proposal: move the TV wall west</text><text x="45" y="77">Keep the eight TVs; reopen the central view to SCANNER and Pattern instructions.</text>
<rect x="55.0" y="288.36" width="529.1999999999999" height="101.64" fill="#e0dfd2"/>
<rect x="55.0" y="112.80000000000001" width="529.1999999999999" height="175.56" fill="#e0dfd2"/>
<rect x="55.0" y="381.6" width="529.1999999999999" height="8.4" fill="#172b3e"/>
<rect x="55.0" y="129.60000000000002" width="529.1999999999999" height="12.6" fill="#137f85"/>
<rect x="52.9" y="109.44" width="533.4" height="3.36" fill="#172b3e"/>
<rect x="457.59999999999997" y="154.95000000000002" width="102" height="48" fill="#172b3e"/><text x="508.59999999999997" y="183.95000000000002" text-anchor="middle" style="fill:white;font-size:13px">TV 1</text>
<rect x="331.59999999999997" y="154.95000000000002" width="102" height="48" fill="#172b3e"/><text x="382.59999999999997" y="183.95000000000002" text-anchor="middle" style="fill:white;font-size:13px">TV 2</text>
<rect x="205.60000000000002" y="154.95000000000002" width="102" height="48" fill="#172b3e"/><text x="256.6" y="183.95000000000002" text-anchor="middle" style="fill:white;font-size:13px">TV 3</text>
<rect x="79.6" y="154.95000000000002" width="102" height="48" fill="#172b3e"/><text x="130.6" y="183.95000000000002" text-anchor="middle" style="fill:white;font-size:13px">TV 4</text>
<rect x="457.59999999999997" y="238.95" width="102" height="48" fill="#172b3e"/><text x="508.59999999999997" y="267.95" text-anchor="middle" style="fill:white;font-size:13px">TV 5</text>
<rect x="331.59999999999997" y="238.95" width="102" height="48" fill="#172b3e"/><text x="382.59999999999997" y="267.95" text-anchor="middle" style="fill:white;font-size:13px">TV 6</text>
<rect x="205.60000000000002" y="238.95" width="102" height="48" fill="#172b3e"/><text x="256.6" y="267.95" text-anchor="middle" style="fill:white;font-size:13px">TV 7</text>
<rect x="79.6" y="238.95" width="102" height="48" fill="#172b3e"/><text x="130.6" y="267.95" text-anchor="middle" style="fill:white;font-size:13px">TV 8</text>
<text x="650" y="155">Same cream / navy / teal finish</text><text x="650" y="190">Continuous grounded wall and base</text><text x="650" y="225">No doorway toward the rear grass drop</text><text x="650" y="260">Eight status lights move with the TVs</text><text x="650" y="295">53 feature meshes remain; 2 removed</text><text x="55" y="424" class="small">Front elevation: 12.6m wall, retained TV sizes/heights. Text schematic.</text><text x="45" y="470" class="title">Plan view — central route stays in place</text>
<rect x="55" y="515" width="510" height="265" fill="#d7dfd4"/><rect x="570" y="515" width="550" height="265" fill="#f6f2e5"/><text x="70" y="540" class="small">Existing western platform</text><rect x="90" y="605" width="360" height="32" fill="#172b3e"/><text x="90" y="592">Proposed TV wall · X shifted −13m</text><rect x="590" y="605" width="360" height="32" fill="none" stroke="#9b6e50" stroke-width="2" stroke-dasharray="8 5"/><text x="610" y="665" class="small">Old wall footprint cleared</text><path d="M270 745 L785 745 L785 550" fill="none" stroke="#007e88" stroke-width="5" marker-end="url(#arrow)"/><text x="560" y="772" class="small">Use front/east route to the original central walkway</text><text x="740" y="526" class="small">SCANNER / Pattern ahead</text><path d="M70 565 L500 565" stroke="#a85a45" stroke-width="3" stroke-dasharray="6 4"/><text x="70" y="557" class="small">Rear platform edge / drop — no route through wall</text><text x="45" y="825">Instruction boards stay where they are. Only the TV bank and its status lights move.</text><text x="45" y="860">Survey supports the footprint; cooked sightlines and walking remain required after approval.</text><text x="45" y="904" class="small">Proposal only. Plan is schematic; candidate-delta.json contains exact transforms. No scene changes applied.</text></svg>